<svg width="850" height="263" viewBox="0 0 850 263" fill="none" xmlns="http://www.w3.org/2000/svg">
<path d="M74.0437 52.6836C69.6254 52.6836 66.0437 56.2653 66.0437 60.6836C66.0437 65.1018 69.6254 68.6836 74.0437 68.6836C78.462 68.6836 82.0437 65.1018 82.0437 60.6836C82.0437 56.2653 78.462 52.6836 74.0437 52.6836ZM74.0437 60.6836H72.5437L72.5437 216.737H74.0437H75.5437L75.5437 60.6836H74.0437Z" fill="#005353"/>
<path d="M242.509 216.735L227.509 208.075L227.509 225.395L242.509 216.735ZM72.5891 216.735L72.5891 218.235L229.009 218.235L229.009 216.735L229.009 215.235L72.5891 215.235L72.5891 216.735Z" fill="#005353"/>
<path d="M302.737 210.752C307.156 210.752 310.737 207.17 310.737 202.752C310.737 198.334 307.156 194.752 302.737 194.752C298.319 194.752 294.737 198.334 294.737 202.752C294.737 207.17 298.319 210.752 302.737 210.752ZM302.737 202.752H304.237V122.181H302.737H301.237V202.752H302.737Z" fill="#005353"/>
<path d="M349.593 231.235C349.593 235.654 353.174 239.235 357.593 239.235C362.011 239.235 365.593 235.654 365.593 231.235C365.593 226.817 362.011 223.235 357.593 223.235C353.174 223.235 349.593 226.817 349.593 231.235ZM435.175 231.235L420.175 222.575V239.895L435.175 231.235ZM357.593 231.235V232.735H421.675V231.235V229.735H357.593V231.235Z" fill="#005353"/>
<path d="M492.321 210.751C496.739 210.751 500.321 207.169 500.321 202.751C500.321 198.333 496.739 194.751 492.321 194.751C487.903 194.751 484.321 198.333 484.321 202.751C484.321 207.169 487.903 210.751 492.321 210.751ZM492.321 138.557L483.661 153.557H500.981L492.321 138.557ZM492.321 202.751H493.821V152.057H492.321H490.821V202.751H492.321Z" fill="#005353"/>
<path d="M242.409 246.211L227.398 237.57L227.42 254.89L242.409 246.211ZM1.5 246.519L1.50192 248.019L228.911 247.728L228.909 246.228L228.907 244.728L1.49808 245.019L1.5 246.519Z" fill="#005353"/>
<path d="M242.409 30.1877L227.396 21.5493L227.421 38.8698L242.409 30.1877ZM135.876 30.3429L135.878 31.8429L228.911 31.7074L228.909 30.2074L228.907 28.7074L135.874 28.8429L135.876 30.3429Z" fill="#005353"/>
<path d="M542.273 122.238C542.273 126.657 545.854 130.238 550.273 130.238C554.691 130.238 558.273 126.657 558.273 122.238C558.273 117.82 554.691 114.238 550.273 114.238C545.854 114.238 542.273 117.82 542.273 122.238ZM604.89 123.738H606.39V120.738H604.89V122.238V123.738ZM550.273 122.238V123.738H604.89V122.238V120.738H550.273V122.238Z" fill="#005353"/>
<path d="M798.02 32.0768C798.02 36.4951 801.602 40.0768 806.02 40.0768C810.438 40.0768 814.02 36.4951 814.02 32.0768C814.02 27.6585 810.438 24.0768 806.02 24.0768C801.602 24.0768 798.02 27.6585 798.02 32.0768ZM848.5 33.5768H850V30.5768H848.5V32.0768V33.5768ZM806.02 32.0768V33.5768H848.5V32.0768V30.5768H806.02V32.0768Z" fill="#005353"/>
<path d="M798.02 170.787C798.02 175.205 801.602 178.787 806.02 178.787C810.438 178.787 814.02 175.205 814.02 170.787C814.02 166.369 810.438 162.787 806.02 162.787C801.602 162.787 798.02 166.369 798.02 170.787ZM848.5 172.287H850V169.287H848.5V170.787V172.287ZM806.02 170.787V172.287H848.5V170.787V169.287H806.02V170.787Z" fill="#005353"/>
<path d="M542.273 231.473C542.273 235.891 545.854 239.473 550.273 239.473C554.691 239.473 558.273 235.891 558.273 231.473C558.273 227.055 554.691 223.473 550.273 223.473C545.854 223.473 542.273 227.055 542.273 231.473ZM604.89 232.973H606.39V229.973H604.89V231.473V232.973ZM550.273 231.473V232.973H604.89V231.473V229.973H550.273V231.473Z" fill="#005353"/>
<path d="M492.188 85.1576C496.606 85.1576 500.188 81.5759 500.188 77.1576C500.188 72.7393 496.606 69.1576 492.188 69.1576C487.769 69.1576 484.188 72.7393 484.188 77.1576C484.188 81.5759 487.769 85.1576 492.188 85.1576ZM493.688 32.0768V30.5768H490.688V32.0768H492.188H493.688ZM492.188 77.1576H493.688V32.0768H492.188H490.688V77.1576H492.188Z" fill="#005353"/>
<path d="M26.7405 30.3429C26.7405 25.9246 23.1588 22.3429 18.7405 22.3429C14.3222 22.3429 10.7405 25.9246 10.7405 30.3429C10.7405 34.7612 14.3222 38.3429 18.7405 38.3429C23.1588 38.3429 26.7405 34.7612 26.7405 30.3429ZM1.50012 28.8429H0.000116348V31.8429H1.50012V30.3429V28.8429ZM18.7405 30.3429V28.8429H1.50012V30.3429V31.8429H18.7405V30.3429Z" fill="#005353"/>
<path d="M435.415 123.176L420.415 114.515V131.836L435.415 123.176ZM301.169 123.176V124.676H421.915V123.176V121.676H301.169V123.176Z" fill="#005353"/>
<path d="M688.116 162.118L673.116 153.457V170.778L688.116 162.118ZM604.89 162.118V163.618L674.616 163.618V162.118V160.618L604.89 160.618V162.118Z" fill="#005353"/>
<path d="M688.116 187.259L673.116 178.599V195.919L688.116 187.259ZM604.89 187.259V188.759L674.616 188.759V187.259V185.759L604.89 185.759V187.259Z" fill="#005353"/>
<path d="M688.116 30.3429L673.04 21.8157L673.193 39.1356L688.116 30.3429ZM492.188 32.0768L492.201 33.5767L674.63 31.9623L674.617 30.4624L674.603 28.9624L492.174 30.5768L492.188 32.0768Z" fill="#005353"/>
<path d="M301.461 54.4116C305.879 54.4116 309.461 57.9933 309.461 62.4116C309.461 66.8299 305.879 70.4116 301.461 70.4116C297.043 70.4116 293.461 66.8299 293.461 62.4116C293.461 57.9933 297.043 54.4116 301.461 54.4116ZM302.961 94.4884V95.9884H299.961V94.4884H301.461H302.961ZM301.461 62.4116H302.961V94.4884H301.461H299.961V62.4116H301.461Z" fill="#005353"/>
<path d="M434.97 95.3714L419.897 103.892L420.043 86.5726L434.97 95.3714ZM301.46 94.1352L301.473 92.6352L421.483 93.7464L421.47 95.2464L421.457 96.7463L301.448 95.6351L301.46 94.1352Z" fill="#005353"/>
<rect x="242.396" y="1.73389" width="117.548" height="61.0375" fill="#DEDEDE"/>
<rect x="435.175" y="77.4205" width="117.548" height="61.0375" fill="#DEDEDE"/>
<rect x="688.116" y="1.73389" width="117.548" height="61.0375" fill="#DEDEDE"/>
<rect x="688.116" y="142.178" width="117.548" height="61.0375" fill="#DEDEDE"/>
<rect x="18.7405" width="117.548" height="61.0375" fill="#DEDEDE"/>
<rect x="435.175" y="201.123" width="117.548" height="61.0375" fill="#DEDEDE"/>
<rect x="242.396" y="201.123" width="117.548" height="61.0375" fill="#DEDEDE"/>
<line x1="605.991" y1="232.38" x2="605.991" y2="187.259" stroke="#005353" stroke-width="3"/>
<line x1="605.991" y1="162.236" x2="605.991" y2="121.372" stroke="#005353" stroke-width="3"/>
</svg>
