<svg width="1414" height="162" viewBox="0 0 1414 162" fill="none" xmlns="http://www.w3.org/2000/svg">
<path d="M458.736 163.853H417.296L351.598 98.042H331.046V68.6182H351.598L417.296 2.80762H458.736L375.968 83.3301L458.736 163.853ZM319.366 163.853H290.167V2.80762H319.366V163.853ZM637.975 56.9385C637.975 63.6019 637.151 69.554 635.504 74.7949C633.857 80.0358 631.611 84.6777 628.766 88.7207C625.995 92.6888 622.776 96.0954 619.107 98.9404C615.439 101.785 611.583 104.144 607.54 106.016C603.572 107.812 599.529 109.123 595.411 109.946C591.368 110.77 587.55 111.182 583.956 111.182L644.938 163.853H599.791L538.922 111.182H517.921V81.9824H583.956C587.625 81.6829 590.956 80.9342 593.951 79.7363C597.021 78.4635 599.641 76.779 601.812 74.6826C604.059 72.5863 605.781 70.0781 606.979 67.1582C608.176 64.1634 608.775 60.7568 608.775 56.9385V38.5205C608.775 36.8734 608.551 35.638 608.102 34.8145C607.727 33.916 607.203 33.2796 606.529 32.9053C605.93 32.4561 605.257 32.194 604.508 32.1191C603.834 32.0443 603.198 32.0068 602.599 32.0068H506.241V163.853H477.042V17.5195C477.042 15.498 477.416 13.5889 478.165 11.792C478.914 9.99512 479.924 8.42285 481.197 7.0752C482.545 5.72754 484.117 4.67936 485.914 3.93066C487.711 3.18197 489.658 2.80762 491.754 2.80762H602.599C609.112 2.80762 614.615 4.00553 619.107 6.40137C623.6 8.72233 627.231 11.6797 630.001 15.2734C632.846 18.7923 634.868 22.6107 636.065 26.7285C637.338 30.8464 637.975 34.7021 637.975 38.2959V56.9385ZM836.305 98.7158C836.305 108.524 834.62 117.546 831.251 125.781C827.882 134.017 823.202 141.13 817.213 147.119C811.223 153.109 804.111 157.788 795.875 161.157C787.714 164.451 778.805 166.099 769.146 166.099H729.615C719.957 166.099 711.01 164.451 702.774 161.157C694.539 157.788 687.426 153.109 681.437 147.119C675.447 141.13 670.73 134.017 667.286 125.781C663.917 117.546 662.232 108.524 662.232 98.7158V67.9443C662.232 58.2113 663.917 49.2269 667.286 40.9912C670.73 32.6807 675.447 25.568 681.437 19.6533C687.426 13.6637 694.539 8.98438 702.774 5.61523C711.01 2.24609 719.957 0.561523 729.615 0.561523H769.146C778.805 0.561523 787.714 2.24609 795.875 5.61523C804.111 8.98438 811.223 13.6637 817.213 19.6533C823.202 25.568 827.882 32.6807 831.251 40.9912C834.62 49.2269 836.305 58.2113 836.305 67.9443V98.7158ZM807.105 67.9443C807.105 62.1794 806.17 56.9759 804.298 52.334C802.501 47.6172 799.918 43.6117 796.549 40.3174C793.255 36.9482 789.249 34.3652 784.532 32.5684C779.89 30.6966 774.762 29.7607 769.146 29.7607H729.615C723.925 29.7607 718.722 30.6966 714.005 32.5684C709.363 34.3652 705.357 36.9482 701.988 40.3174C698.619 43.6117 695.999 47.6172 694.127 52.334C692.33 56.9759 691.432 62.1794 691.432 67.9443V98.7158C691.432 104.481 692.33 109.722 694.127 114.438C695.999 119.08 698.619 123.086 701.988 126.455C705.357 129.749 709.363 132.332 714.005 134.204C718.722 136.001 723.925 136.899 729.615 136.899H768.922C774.612 136.899 779.778 136.001 784.42 134.204C789.137 132.332 793.18 129.749 796.549 126.455C799.918 123.086 802.501 119.08 804.298 114.438C806.17 109.722 807.105 104.481 807.105 98.7158V67.9443ZM1026.1 151.387C1026.1 153.483 1025.69 155.43 1024.86 157.227C1024.12 159.023 1023.07 160.596 1021.72 161.943C1020.45 163.216 1018.91 164.227 1017.12 164.976C1015.32 165.724 1013.41 166.099 1011.39 166.099C1009.59 166.099 1007.76 165.762 1005.88 165.088C1004.09 164.414 1002.48 163.328 1001.06 161.831L894.366 50.4248V163.853H865.167V15.2734C865.167 12.2786 865.991 9.58333 867.638 7.1875C869.36 4.7168 871.531 2.88249 874.151 1.68457C876.922 0.561523 879.767 0.299479 882.687 0.898438C885.606 1.42253 888.115 2.77018 890.211 4.94141L996.9 116.235V2.80762H1026.1V151.387ZM1217.92 149.141C1217.92 151.237 1217.54 153.184 1216.79 154.98C1216.04 156.777 1215 158.35 1213.65 159.697C1212.3 160.97 1210.73 161.981 1208.93 162.729C1207.13 163.478 1205.23 163.853 1203.2 163.853H1137.39C1131.18 163.853 1124.89 163.179 1118.53 161.831C1112.16 160.483 1105.99 158.424 1100 155.654C1094.08 152.809 1088.5 149.215 1083.26 144.873C1078.02 140.531 1073.42 135.402 1069.45 129.487C1065.56 123.498 1062.49 116.685 1060.24 109.048C1057.99 101.336 1056.87 92.7637 1056.87 83.3301V2.80762H1086.07V83.3301C1086.07 91.5658 1087.19 98.5286 1089.44 104.219C1091.76 109.909 1094.68 114.663 1098.2 118.481C1101.72 122.3 1105.57 125.295 1109.77 127.466C1113.96 129.637 1117.93 131.247 1121.67 132.295C1125.49 133.343 1128.82 134.017 1131.67 134.316C1134.59 134.541 1136.5 134.653 1137.39 134.653H1188.72V2.80762H1217.92V149.141ZM1406.7 116.46C1406.7 122.225 1405.95 127.428 1404.45 132.07C1403.03 136.637 1401.12 140.68 1398.73 144.199C1396.33 147.718 1393.52 150.713 1390.3 153.184C1387.08 155.654 1383.75 157.676 1380.31 159.248C1376.86 160.82 1373.35 161.981 1369.75 162.729C1366.23 163.478 1362.9 163.853 1359.76 163.853H1247.12V134.653H1359.76C1365.37 134.653 1369.71 133.006 1372.78 129.712C1375.93 126.418 1377.5 122 1377.5 116.46C1377.5 113.765 1377.09 111.294 1376.27 109.048C1375.44 106.802 1374.24 104.855 1372.67 103.208C1371.17 101.561 1369.3 100.288 1367.06 99.3896C1364.89 98.4912 1362.45 98.042 1359.76 98.042H1292.6C1287.88 98.042 1282.79 97.2184 1277.33 95.5713C1271.86 93.8493 1266.77 91.1165 1262.05 87.373C1257.41 83.6296 1253.52 78.7256 1250.37 72.6611C1247.3 66.5967 1245.77 59.1846 1245.77 50.4248C1245.77 41.665 1247.3 34.2904 1250.37 28.3008C1253.52 22.2363 1257.41 17.3324 1262.05 13.5889C1266.77 9.77051 1271.86 7.03776 1277.33 5.39062C1282.79 3.66862 1287.88 2.80762 1292.6 2.80762H1391.99V32.0068H1292.6C1287.06 32.0068 1282.72 33.6914 1279.57 37.0605C1276.5 40.4297 1274.97 44.8844 1274.97 50.4248C1274.97 56.04 1276.5 60.4948 1279.57 63.7891C1282.72 67.0085 1287.06 68.6182 1292.6 68.6182H1359.76H1359.98C1363.13 68.693 1366.46 69.1423 1369.98 69.9658C1373.5 70.7145 1376.98 71.9124 1380.42 73.5596C1383.94 75.2067 1387.27 77.3031 1390.42 79.8486C1393.56 82.3193 1396.33 85.3141 1398.73 88.833C1401.2 92.3519 1403.14 96.3949 1404.57 100.962C1405.99 105.529 1406.7 110.695 1406.7 116.46Z" fill="#003333"/>
<rect x="161.4" y="137.153" width="107.6" height="26.9" fill="#003333"/>
<rect x="188.301" y="29.5522" width="107.6" height="26.9" transform="rotate(90 188.301 29.5522)" fill="#003333"/>
<rect x="188.301" y="29.5522" width="107.6" height="26.9" transform="rotate(180 188.301 29.5522)" fill="#003333"/>
<rect x="80.7004" y="137.153" width="107.6" height="26.9" transform="rotate(-90 80.7004 137.153)" fill="#003333"/>
<rect y="137.153" width="107.6" height="26.9" fill="#003333"/>
</svg>
