<svg width="1383" height="300" viewBox="0 0 1383 300" fill="none" xmlns="http://www.w3.org/2000/svg">
<path d="M510.8 80L433.7 146.6V145L525.5 220H483.7L399.9 150.6H405.4V220H379V80H405.4V146.6H399.3L474.9 80H510.8ZM545.406 220V80H639.606C649.74 80 658.006 81.7333 664.406 85.2C670.806 88.6 674.006 96 674.006 107.4V139.5C674.006 148.167 671.14 154.667 665.406 159C659.74 163.333 651.14 165.5 639.606 165.5H630.906L686.506 220H651.006L595.506 165.5H571.806V220H545.406ZM571.806 141.1H637.006C640.54 141.1 643.173 140.433 644.906 139.1C646.706 137.767 647.606 135.1 647.606 131.1V114.4C647.606 110.867 646.706 108.333 644.906 106.8C643.173 105.2 640.54 104.4 637.006 104.4H571.806V141.1ZM708.617 106C708.617 94.6 711.784 87.2 718.117 83.8C724.517 80.3333 732.751 78.6 742.817 78.6H819.417C829.551 78.6 837.817 80.3333 844.217 83.8C850.617 87.2 853.817 94.6 853.817 106V192.8C853.817 204.667 850.751 212.4 844.617 216C838.551 219.6 830.151 221.4 819.417 221.4H742.817C732.084 221.4 723.684 219.6 717.617 216C711.617 212.333 708.617 204.6 708.617 192.8V106ZM735.017 103V197H827.417V103H735.017ZM890.719 220V80H911.119L1009.32 178.4V80H1033.72V220H1013.32L915.119 122.2V220H890.719ZM1072.23 80H1098.63V196H1178.43V80H1204.83V192.8C1204.83 204.6 1201.76 212.333 1195.63 216C1189.56 219.6 1181.16 221.4 1170.43 221.4H1106.43C1101.16 221.4 1096.39 221 1092.13 220.2C1087.93 219.467 1084.33 218.067 1081.33 216C1078.39 213.867 1076.13 210.933 1074.53 207.2C1072.99 203.467 1072.23 198.667 1072.23 192.8V80ZM1235.26 183.6L1260.46 178.4V197H1344.26V161.4H1272.46C1267.19 161.4 1262.42 161 1258.16 160.2C1253.96 159.4 1250.36 157.967 1247.36 155.9C1244.42 153.767 1242.16 150.833 1240.56 147.1C1239.02 143.3 1238.26 138.467 1238.26 132.6V106C1238.26 100.267 1239.09 95.6333 1240.76 92.1C1242.42 88.5 1244.76 85.7 1247.76 83.7C1250.76 81.7 1254.36 80.3667 1258.56 79.7C1262.76 78.9667 1267.39 78.6 1272.46 78.6H1333.06C1338.19 78.6 1342.86 78.9667 1347.06 79.7C1351.26 80.3667 1354.86 81.7 1357.86 83.7C1360.92 85.7 1363.29 88.5 1364.96 92.1C1366.62 95.6333 1367.46 100.267 1367.46 106V116L1342.26 121V103H1263.46V137H1335.06C1340.19 137 1344.86 137.367 1349.06 138.1C1353.26 138.767 1356.86 140.1 1359.86 142.1C1362.92 144.1 1365.29 146.9 1366.96 150.5C1368.62 154.033 1369.46 158.667 1369.46 164.4V192.8C1369.46 204.6 1366.39 212.333 1360.26 216C1354.19 219.6 1345.79 221.4 1335.06 221.4H1269.46C1264.19 221.4 1259.42 221 1255.16 220.2C1250.96 219.467 1247.36 218.067 1244.36 216C1241.42 213.867 1239.16 210.933 1237.56 207.2C1236.02 203.467 1235.26 198.667 1235.26 192.8V183.6Z" fill="#AFAFAF"/>
<rect x="182.399" y="211" width="121.6" height="30.3999" fill="#AFAFAF"/>
<rect x="212.801" y="89.3999" width="121.6" height="30.4001" transform="rotate(90 212.801 89.3999)" fill="#AFAFAF"/>
<rect x="212.801" y="89.3999" width="121.6" height="30.3999" transform="rotate(180 212.801 89.3999)" fill="#AFAFAF"/>
<rect x="91.2017" y="211" width="121.6" height="30.4001" transform="rotate(-90 91.2017 211)" fill="#AFAFAF"/>
<rect y="211" width="121.6" height="30.3999" fill="#AFAFAF"/>
</svg>
