<svg width="1090" height="158" viewBox="0 0 1090 158" fill="none" xmlns="http://www.w3.org/2000/svg">
<path d="M144.98 1.54003L60.17 74.8V73.04L161.15 155.54H115.17L22.99 79.2H29.04V155.54H3.27826e-07V1.54003H29.04V74.8H22.33L105.49 1.54003H144.98ZM183.047 155.54V1.54003H286.667C297.814 1.54003 306.907 3.4467 313.947 7.26003C320.987 11 324.507 19.14 324.507 31.68V66.99C324.507 76.5234 321.354 83.6734 315.047 88.44C308.814 93.2067 299.354 95.59 286.667 95.59H277.097L338.257 155.54H299.207L238.157 95.59H212.087V155.54H183.047ZM212.087 68.75H283.807C287.694 68.75 290.59 68.0167 292.497 66.55C294.477 65.0834 295.467 62.15 295.467 57.75V39.38C295.467 35.4934 294.477 32.7067 292.497 31.02C290.59 29.26 287.694 28.38 283.807 28.38H212.087V68.75ZM362.579 30.14C362.579 17.6 366.062 9.46003 373.029 5.72003C380.069 1.9067 389.126 3.52859e-05 400.199 3.52859e-05H484.459C495.606 3.52859e-05 504.699 1.9067 511.739 5.72003C518.779 9.46003 522.299 17.6 522.299 30.14V125.62C522.299 138.673 518.926 147.18 512.179 151.14C505.506 155.1 496.266 157.08 484.459 157.08H400.199C388.392 157.08 379.152 155.1 372.479 151.14C365.879 147.107 362.579 138.6 362.579 125.62V30.14ZM391.619 26.84V130.24H493.259V26.84H391.619ZM562.891 155.54V1.54003H585.331L693.351 109.78V1.54003H720.191V155.54H697.751L589.731 47.96V155.54H562.891ZM762.549 1.54003H791.589V129.14H879.369V1.54003H908.409V125.62C908.409 138.6 905.036 147.107 898.289 151.14C891.616 155.1 882.376 157.08 870.569 157.08H800.169C794.376 157.08 789.133 156.64 784.439 155.76C779.819 154.953 775.859 153.413 772.559 151.14C769.333 148.793 766.839 145.567 765.079 141.46C763.393 137.353 762.549 132.073 762.549 125.62V1.54003ZM941.884 115.5L969.604 109.78V130.24H1061.78V91.08H982.804C977.01 91.08 971.767 90.64 967.074 89.76C962.454 88.88 958.494 87.3034 955.194 85.03C951.967 82.6834 949.474 79.4567 947.714 75.35C946.027 71.17 945.184 65.8534 945.184 59.4V30.14C945.184 23.8334 946.1 18.7367 947.934 14.85C949.767 10.89 952.334 7.81003 955.634 5.61004C958.934 3.41004 962.894 1.94337 967.514 1.21003C972.134 0.403366 977.23 3.52859e-05 982.804 3.52859e-05H1049.46C1055.11 3.52859e-05 1060.24 0.403366 1064.86 1.21003C1069.48 1.94337 1073.44 3.41004 1076.74 5.61004C1080.12 7.81003 1082.72 10.89 1084.55 14.85C1086.39 18.7367 1087.3 23.8334 1087.3 30.14V41.14L1059.58 46.64V26.84H972.904V64.24H1051.66C1057.31 64.24 1062.44 64.6434 1067.06 65.45C1071.68 66.1834 1075.64 67.65 1078.94 69.85C1082.32 72.05 1084.92 75.13 1086.75 79.09C1088.59 82.9767 1089.5 88.0734 1089.5 94.38V125.62C1089.5 138.6 1086.13 147.107 1079.38 151.14C1072.71 155.1 1063.47 157.08 1051.66 157.08H979.504C973.71 157.08 968.467 156.64 963.774 155.76C959.154 154.953 955.194 153.413 951.894 151.14C948.667 148.793 946.174 145.567 944.414 141.46C942.727 137.353 941.884 132.073 941.884 125.62V115.5Z" fill="white"/>
</svg>
