<svg width="628" height="852" viewBox="0 0 628 852" fill="none" xmlns="http://www.w3.org/2000/svg">
<g filter="url(#filter0_d_110_116)">
<rect x="9.39999" y="9.4" width="609" height="153" fill="#131313" fill-opacity="0.66" shape-rendering="crispEdges"/>
<rect x="10.9" y="10.9" width="606" height="150" stroke="#006A94" stroke-opacity="0.75" stroke-width="3" shape-rendering="crispEdges"/>
</g>
<g filter="url(#filter1_d_110_116)">
<rect x="9.39999" y="349.396" width="609" height="153" fill="#131313" fill-opacity="0.66" shape-rendering="crispEdges"/>
<rect x="10.9" y="350.896" width="606" height="150" stroke="#006A94" stroke-opacity="0.75" stroke-width="3" shape-rendering="crispEdges"/>
</g>
<g filter="url(#filter2_d_110_116)">
<rect x="9.39999" y="689.396" width="609" height="153" fill="#131313" fill-opacity="0.66" shape-rendering="crispEdges"/>
<rect x="10.9" y="690.896" width="606" height="150" stroke="#006A94" stroke-opacity="0.75" stroke-width="3" shape-rendering="crispEdges"/>
</g>
<path d="M92.1927 78.3996V52.7676H101.157C104.541 52.7676 107.313 54.2796 108.969 57.0876C110.229 59.2476 110.337 60.2196 110.337 65.5836C110.337 71.3436 110.049 72.3516 108.897 74.1516C107.385 76.5276 104.721 78.3996 100.905 78.3996H92.1927ZM96.0807 56.4396V74.7276H100.725C102.921 74.7276 104.469 73.9716 105.477 72.4956C106.341 71.1996 106.449 70.4796 106.449 65.7276C106.449 61.1196 106.341 60.0036 105.297 58.5996C104.109 56.9796 102.813 56.4396 100.725 56.4396H96.0807ZM115.229 78.3996V52.7676H131.609V56.4396H119.117V63.7476H129.773V67.2036H119.117V74.7276H131.609V78.3996H115.229ZM139.948 78.3996V56.2236H132.928V52.7676H150.856V56.2236H143.836V78.3996H139.948ZM153.952 78.3996V52.7676H170.332V56.4396H157.84V63.7476H168.496V67.2036H157.84V74.7276H170.332V78.3996H153.952ZM178.204 56.2236V63.9996H184.072C186.988 63.9996 188.428 62.0916 188.428 59.9316C188.428 58.5996 187.924 57.5916 187.132 57.0156C186.412 56.4756 185.62 56.2236 184.288 56.2236H178.204ZM174.316 78.3996V52.7676H184.324C186.484 52.7676 188.176 53.2716 189.544 54.4596C190.984 55.6836 192.1 57.6276 192.1 59.9316C192.1 63.2436 190.228 65.9436 187.132 67.0236L193.072 78.3996H188.464L183.172 67.4556H178.204V78.3996H174.316ZM196.649 78.3996V52.7676H200.321L207.665 69.4716L214.865 52.7676H218.537V78.3996H214.649V62.4156H214.577L209.213 74.7276H205.973L200.609 62.4156H200.537V78.3996H196.649ZM224.29 78.3996V52.7676H228.178V78.3996H224.29ZM233.931 78.3996V52.7676H237.603L249.195 70.9836H249.267V52.7676H253.155V78.3996H249.483L237.891 60.1836H237.819V78.3996H233.931ZM258.901 78.3996V52.7676H262.789V78.3996H258.901ZM266.31 75.0876L268.866 72.1716C270.81 73.7196 273.402 74.7276 276.138 74.7276C279.306 74.7276 281.214 73.2876 281.214 71.1636C281.214 69.3636 280.17 67.9956 277.866 67.7076C276.714 67.5636 275.814 67.4196 274.482 67.2396C270.054 66.6276 267.678 63.7476 267.678 60.0396C267.678 55.6476 270.738 52.5516 276.03 52.5516C279.198 52.5516 282.006 53.6676 284.346 55.2156L282.186 58.4196C280.314 57.2316 278.118 56.4396 275.85 56.4396C273.474 56.4396 271.566 57.6636 271.566 60.1116C271.566 61.5516 272.61 62.9916 275.202 63.3876C275.886 63.4956 276.858 63.6396 278.082 63.7836C282.87 64.3596 285.102 67.6716 285.102 71.1636C285.102 75.8796 281.61 78.6156 276.102 78.6156C272.322 78.6156 269.01 77.4636 266.31 75.0876ZM293.93 78.3996V56.2236H286.91V52.7676H304.838V56.2236H297.818V78.3996H293.93ZM307.934 78.3996V52.7676H311.822V78.3996H307.934ZM330.751 71.2356H334.855C333.847 76.0236 330.247 78.6156 325.855 78.6156C321.823 78.6156 319.051 76.2396 317.827 74.0076C316.999 72.4956 316.711 71.7396 316.711 65.5836C316.711 59.4276 316.999 58.6716 317.827 57.1596C319.051 54.9276 321.823 52.5516 325.855 52.5516C330.715 52.5516 334.063 55.9716 334.855 60.1476H330.751C330.139 58.1676 328.303 56.4396 325.855 56.4396C324.019 56.4396 322.687 57.3036 321.895 58.3116C320.887 59.6076 320.599 60.3276 320.599 65.5836C320.599 70.8396 320.887 71.5596 321.895 72.8556C322.687 73.8636 324.019 74.7276 325.855 74.7276C328.015 74.7276 329.671 73.5396 330.751 71.2356ZM360.988 78.3996V67.2036H350.836V78.3996H346.948V52.7676H350.836V63.7476H360.988V52.7676H364.876V78.3996H360.988ZM375.187 69.2196H382.675L378.967 58.0236H378.895L375.187 69.2196ZM385.771 78.3996L383.791 72.6756H374.071L372.091 78.3996H367.987L377.311 52.7676H380.551L389.875 78.3996H385.771ZM396.872 56.2236V63.9996H402.74C405.656 63.9996 407.096 62.0916 407.096 59.9316C407.096 58.5996 406.592 57.5916 405.8 57.0156C405.08 56.4756 404.288 56.2236 402.956 56.2236H396.872ZM392.984 78.3996V52.7676H402.992C405.152 52.7676 406.844 53.2716 408.212 54.4596C409.652 55.6836 410.768 57.6276 410.768 59.9316C410.768 63.2436 408.896 65.9436 405.8 67.0236L411.74 78.3996H407.132L401.84 67.4556H396.872V78.3996H392.984ZM415.317 78.3996V52.7676H424.281C427.665 52.7676 430.437 54.2796 432.093 57.0876C433.353 59.2476 433.461 60.2196 433.461 65.5836C433.461 71.3436 433.173 72.3516 432.021 74.1516C430.509 76.5276 427.845 78.3996 424.029 78.3996H415.317ZM419.205 56.4396V74.7276H423.849C426.045 74.7276 427.593 73.9716 428.601 72.4956C429.465 71.1996 429.573 70.4796 429.573 65.7276C429.573 61.1196 429.465 60.0036 428.421 58.5996C427.233 56.9796 425.937 56.4396 423.849 56.4396H419.205ZM442.456 78.3996L436.048 52.7676H440.152L444.184 70.9836H444.256L449.224 52.7676H452.032L457 70.9836H457.072L461.104 52.7676H465.208L458.8 78.3996H455.56L450.664 59.9316H450.592L445.696 78.3996H442.456ZM471.866 69.2196H479.354L475.646 58.0236H475.574L471.866 69.2196ZM482.45 78.3996L480.47 72.6756H470.75L468.77 78.3996H464.666L473.99 52.7676H477.23L486.554 78.3996H482.45ZM493.55 56.2236V63.9996H499.418C502.334 63.9996 503.774 62.0916 503.774 59.9316C503.774 58.5996 503.27 57.5916 502.478 57.0156C501.758 56.4756 500.966 56.2236 499.634 56.2236H493.55ZM489.662 78.3996V52.7676H499.67C501.83 52.7676 503.522 53.2716 504.89 54.4596C506.33 55.6836 507.446 57.6276 507.446 59.9316C507.446 63.2436 505.574 65.9436 502.478 67.0236L508.418 78.3996H503.81L498.518 67.4556H493.55V78.3996H489.662ZM511.995 78.3996V52.7676H528.375V56.4396H515.883V63.7476H526.539V67.2036H515.883V74.7276H528.375V78.3996H511.995ZM266.239 121.4V95.7676H270.127V117.728H282.619V121.4H266.239ZM291.139 112.22H298.627L294.919 101.024H294.847L291.139 112.22ZM301.723 121.4L299.743 115.676H290.023L288.043 121.4H283.939L293.263 95.7676H296.503L305.827 121.4H301.723ZM310.728 121.4V110.852L303.024 95.7676H307.128L312.564 107.144L318 95.7676H322.104L314.4 110.852V121.4H310.728ZM324.624 121.4V95.7676H341.004V99.4396H328.512V106.748H339.168V110.204H328.512V117.728H341.004V121.4H324.624ZM348.876 99.2236V107H354.744C357.66 107 359.1 105.092 359.1 102.932C359.1 101.6 358.596 100.592 357.804 100.016C357.084 99.4756 356.292 99.2236 354.96 99.2236H348.876ZM344.988 121.4V95.7676H354.996C357.156 95.7676 358.848 96.2716 360.216 97.4596C361.656 98.6836 362.772 100.628 362.772 102.932C362.772 106.244 360.9 108.944 357.804 110.024L363.744 121.4H359.136L353.844 110.456H348.876V121.4H344.988Z" fill="#00B7FF"/>
<path d="M185.108 416.084L187.664 413.168C189.608 414.716 192.2 415.724 194.936 415.724C198.104 415.724 200.012 414.284 200.012 412.16C200.012 410.36 198.968 408.992 196.664 408.704C195.512 408.56 194.612 408.416 193.28 408.236C188.852 407.624 186.476 404.744 186.476 401.036C186.476 396.644 189.536 393.548 194.828 393.548C197.996 393.548 200.804 394.664 203.144 396.212L200.984 399.416C199.112 398.228 196.916 397.436 194.648 397.436C192.272 397.436 190.364 398.66 190.364 401.108C190.364 402.548 191.408 403.988 194 404.384C194.684 404.492 195.656 404.636 196.88 404.78C201.668 405.356 203.9 408.668 203.9 412.16C203.9 416.876 200.408 419.612 194.9 419.612C191.12 419.612 187.808 418.46 185.108 416.084ZM208.372 419.396V393.764H217.336C220.72 393.764 223.492 395.276 225.148 398.084C226.408 400.244 226.516 401.216 226.516 406.58C226.516 412.34 226.228 413.348 225.076 415.148C223.564 417.524 220.9 419.396 217.084 419.396H208.372ZM212.26 397.436V415.724H216.904C219.1 415.724 220.648 414.968 221.656 413.492C222.52 412.196 222.628 411.476 222.628 406.724C222.628 402.116 222.52 401 221.476 399.596C220.288 397.976 218.992 397.436 216.904 397.436H212.26ZM231.408 419.396V393.764H235.296V406.976H235.368L245.916 393.764H250.524L242.316 403.88L251.388 419.396H246.78L239.796 406.868L235.296 411.584V419.396H231.408ZM267.808 419.396V397.22H260.788V393.764H278.716V397.22H271.696V419.396H267.808ZM280.315 406.58C280.315 400.424 280.603 399.668 281.431 398.156C282.655 395.924 285.427 393.548 289.459 393.548C293.491 393.548 296.263 395.924 297.487 398.156C298.315 399.668 298.603 400.424 298.603 406.58C298.603 412.736 298.315 413.492 297.487 415.004C296.263 417.236 293.491 419.612 289.459 419.612C285.427 419.612 282.655 417.236 281.431 415.004C280.603 413.492 280.315 412.736 280.315 406.58ZM284.203 406.58C284.203 411.836 284.491 412.556 285.499 413.852C286.291 414.86 287.623 415.724 289.459 415.724C291.295 415.724 292.627 414.86 293.419 413.852C294.427 412.556 294.715 411.836 294.715 406.58C294.715 401.324 294.427 400.604 293.419 399.308C292.627 398.3 291.295 397.436 289.459 397.436C287.623 397.436 286.291 398.3 285.499 399.308C284.491 400.604 284.203 401.324 284.203 406.58ZM302.648 406.58C302.648 400.424 302.936 399.668 303.764 398.156C304.988 395.924 307.76 393.548 311.792 393.548C315.824 393.548 318.596 395.924 319.82 398.156C320.648 399.668 320.936 400.424 320.936 406.58C320.936 412.736 320.648 413.492 319.82 415.004C318.596 417.236 315.824 419.612 311.792 419.612C307.76 419.612 304.988 417.236 303.764 415.004C302.936 413.492 302.648 412.736 302.648 406.58ZM306.536 406.58C306.536 411.836 306.824 412.556 307.832 413.852C308.624 414.86 309.956 415.724 311.792 415.724C313.628 415.724 314.96 414.86 315.752 413.852C316.76 412.556 317.048 411.836 317.048 406.58C317.048 401.324 316.76 400.604 315.752 399.308C314.96 398.3 313.628 397.436 311.792 397.436C309.956 397.436 308.624 398.3 307.832 399.308C306.824 400.604 306.536 401.324 306.536 406.58ZM325.845 419.396V393.764H329.733V415.724H342.225V419.396H325.845ZM359.385 412.232H363.489C362.481 417.02 358.881 419.612 354.489 419.612C350.457 419.612 347.685 417.236 346.461 415.004C345.633 413.492 345.345 412.736 345.345 406.58C345.345 400.424 345.633 399.668 346.461 398.156C347.685 395.924 350.457 393.548 354.489 393.548C359.349 393.548 362.697 396.968 363.489 401.144H359.385C358.773 399.164 356.937 397.436 354.489 397.436C352.653 397.436 351.321 398.3 350.529 399.308C349.521 400.604 349.233 401.324 349.233 406.58C349.233 411.836 349.521 412.556 350.529 413.852C351.321 414.86 352.653 415.724 354.489 415.724C356.649 415.724 358.305 414.536 359.385 412.232ZM380.613 419.396V408.2H370.461V419.396H366.573V393.764H370.461V404.744H380.613V393.764H384.501V419.396H380.613ZM394.812 410.216H402.3L398.592 399.02H398.52L394.812 410.216ZM405.396 419.396L403.416 413.672H393.696L391.716 419.396H387.612L396.936 393.764H400.176L409.5 419.396H405.396ZM412.609 419.396V393.764H416.497V419.396H412.609ZM422.25 419.396V393.764H425.922L437.514 411.98H437.586V393.764H441.474V419.396H437.802L426.21 401.18H426.138V419.396H422.25ZM272.833 451.884V444.18H275.641V451.884H283.345V454.692H275.641V462.396H272.833V454.692H265.129V451.884H272.833ZM301.628 453.216H309.116L305.408 442.02H305.336L301.628 453.216ZM312.212 462.396L310.232 456.672H300.512L298.532 462.396H294.428L303.752 436.764H306.992L316.316 462.396H312.212ZM323.313 440.436V448.716H329.073C331.953 448.716 333.357 446.592 333.357 444.576C333.357 442.848 332.673 441.804 331.701 441.156C330.837 440.58 330.045 440.436 328.929 440.436H323.313ZM319.425 462.396V436.764H328.713C330.729 436.764 332.493 437.016 334.473 438.564C336.021 439.752 337.245 441.912 337.245 444.684C337.245 448.32 334.473 452.388 329.217 452.388H323.313V462.396H319.425ZM341.124 462.396V436.764H345.012V462.396H341.124ZM348.426 459.336L350.982 456.816C352.566 458.364 354.294 459.156 356.742 459.156C358.83 459.156 360.342 458.364 360.342 456.816C360.342 455.52 359.37 455.124 358.11 455.016L354.87 454.728C351.846 454.476 349.614 452.676 349.614 449.544C349.614 445.836 352.566 443.928 356.418 443.928C359.622 443.928 361.782 444.9 363.582 446.412L361.314 449.076C359.874 448.068 358.398 447.384 356.418 447.384C354.078 447.384 353.286 448.32 353.286 449.58C353.286 450.372 353.862 451.164 355.698 451.308L358.722 451.524C362.502 451.776 364.014 454.08 364.014 456.996C364.014 460.56 360.702 462.612 356.454 462.612C353.502 462.612 350.766 461.532 348.426 459.336Z" fill="#00B7FF"/>
<path d="M76.3641 759.396L67.9041 733.764H72.0081L77.8401 753.276H77.9121L83.7441 733.764H87.8481L79.3881 759.396H76.3641ZM90.932 759.396V733.764H107.312V737.436H94.82V744.744H105.476V748.2H94.82V755.724H107.312V759.396H90.932ZM115.184 737.22V744.996H121.052C123.968 744.996 125.408 743.088 125.408 740.928C125.408 739.596 124.904 738.588 124.112 738.012C123.392 737.472 122.6 737.22 121.268 737.22H115.184ZM111.296 759.396V733.764H121.304C123.464 733.764 125.156 734.268 126.524 735.456C127.964 736.68 129.08 738.624 129.08 740.928C129.08 744.24 127.208 746.94 124.112 748.02L130.052 759.396H125.444L120.152 748.452H115.184V759.396H111.296ZM133.629 759.396V733.764H137.517V759.396H133.629ZM143.27 759.396V733.764H159.65V737.436H147.158V744.996H157.814V748.452H147.158V759.396H143.27ZM162.966 759.396V733.764H166.854V759.396H162.966ZM185.783 752.232H189.887C188.879 757.02 185.279 759.612 180.887 759.612C176.855 759.612 174.083 757.236 172.859 755.004C172.031 753.492 171.743 752.736 171.743 746.58C171.743 740.424 172.031 739.668 172.859 738.156C174.083 735.924 176.855 733.548 180.887 733.548C185.747 733.548 189.095 736.968 189.887 741.144H185.783C185.171 739.164 183.335 737.436 180.887 737.436C179.051 737.436 177.719 738.3 176.927 739.308C175.919 740.604 175.631 741.324 175.631 746.58C175.631 751.836 175.919 752.556 176.927 753.852C177.719 754.86 179.051 755.724 180.887 755.724C183.047 755.724 184.703 754.536 185.783 752.232ZM197.507 750.216H204.995L201.287 739.02H201.215L197.507 750.216ZM208.091 759.396L206.111 753.672H196.391L194.411 759.396H190.307L199.631 733.764H202.871L212.195 759.396H208.091ZM216.988 759.396V737.22H209.968V733.764H227.896V737.22H220.876V759.396H216.988ZM230.992 759.396V733.764H234.88V759.396H230.992ZM239.769 746.58C239.769 740.424 240.057 739.668 240.885 738.156C242.109 735.924 244.881 733.548 248.913 733.548C252.945 733.548 255.717 735.924 256.941 738.156C257.769 739.668 258.057 740.424 258.057 746.58C258.057 752.736 257.769 753.492 256.941 755.004C255.717 757.236 252.945 759.612 248.913 759.612C244.881 759.612 242.109 757.236 240.885 755.004C240.057 753.492 239.769 752.736 239.769 746.58ZM243.657 746.58C243.657 751.836 243.945 752.556 244.953 753.852C245.745 754.86 247.077 755.724 248.913 755.724C250.749 755.724 252.081 754.86 252.873 753.852C253.881 752.556 254.169 751.836 254.169 746.58C254.169 741.324 253.881 740.604 252.873 739.308C252.081 738.3 250.749 737.436 248.913 737.436C247.077 737.436 245.745 738.3 244.953 739.308C243.945 740.604 243.657 741.324 243.657 746.58ZM262.966 759.396V733.764H266.638L278.23 751.98H278.302V733.764H282.19V759.396H278.518L266.926 741.18H266.854V759.396H262.966ZM303.639 748.884V741.18H306.447V748.884H314.151V751.692H306.447V759.396H303.639V751.692H295.935V748.884H303.639ZM341.074 752.232H345.178C344.17 757.02 340.57 759.612 336.178 759.612C332.146 759.612 329.374 757.236 328.15 755.004C327.322 753.492 327.034 752.736 327.034 746.58C327.034 740.424 327.322 739.668 328.15 738.156C329.374 735.924 332.146 733.548 336.178 733.548C341.038 733.548 344.386 736.968 345.178 741.144H341.074C340.462 739.164 338.626 737.436 336.178 737.436C334.342 737.436 333.01 738.3 332.218 739.308C331.21 740.604 330.922 741.324 330.922 746.58C330.922 751.836 331.21 752.556 332.218 753.852C333.01 754.86 334.342 755.724 336.178 755.724C338.338 755.724 339.994 754.536 341.074 752.232ZM348.262 759.396V733.764H364.642V737.436H352.15V744.744H362.806V748.2H352.15V755.724H364.642V759.396H348.262ZM372.514 737.22V744.996H378.382C381.298 744.996 382.738 743.088 382.738 740.928C382.738 739.596 382.234 738.588 381.442 738.012C380.722 737.472 379.93 737.22 378.598 737.22H372.514ZM368.626 759.396V733.764H378.634C380.794 733.764 382.486 734.268 383.854 735.456C385.294 736.68 386.41 738.624 386.41 740.928C386.41 744.24 384.538 746.94 381.442 748.02L387.382 759.396H382.774L377.482 748.452H372.514V759.396H368.626ZM394.681 759.396V737.22H387.661V733.764H405.589V737.22H398.569V759.396H394.681ZM408.685 759.396V733.764H412.573V759.396H408.685ZM418.327 759.396V733.764H434.707V737.436H422.215V744.996H432.871V748.452H422.215V759.396H418.327ZM438.023 759.396V733.764H441.911V759.396H438.023ZM460.84 752.232H464.944C463.936 757.02 460.336 759.612 455.944 759.612C451.912 759.612 449.14 757.236 447.916 755.004C447.088 753.492 446.8 752.736 446.8 746.58C446.8 740.424 447.088 739.668 447.916 738.156C449.14 735.924 451.912 733.548 455.944 733.548C460.804 733.548 464.152 736.968 464.944 741.144H460.84C460.228 739.164 458.392 737.436 455.944 737.436C454.108 737.436 452.776 738.3 451.984 739.308C450.976 740.604 450.688 741.324 450.688 746.58C450.688 751.836 450.976 752.556 451.984 753.852C452.776 754.86 454.108 755.724 455.944 755.724C458.104 755.724 459.76 754.536 460.84 752.232ZM472.564 750.216H480.052L476.344 739.02H476.272L472.564 750.216ZM483.148 759.396L481.168 753.672H471.448L469.468 759.396H465.364L474.688 733.764H477.928L487.252 759.396H483.148ZM492.045 759.396V737.22H485.025V733.764H502.953V737.22H495.933V759.396H492.045ZM506.049 759.396V733.764H509.937V759.396H506.049ZM514.826 746.58C514.826 740.424 515.114 739.668 515.942 738.156C517.166 735.924 519.938 733.548 523.97 733.548C528.002 733.548 530.774 735.924 531.998 738.156C532.826 739.668 533.114 740.424 533.114 746.58C533.114 752.736 532.826 753.492 531.998 755.004C530.774 757.236 528.002 759.612 523.97 759.612C519.938 759.612 517.166 757.236 515.942 755.004C515.114 753.492 514.826 752.736 514.826 746.58ZM518.714 746.58C518.714 751.836 519.002 752.556 520.01 753.852C520.802 754.86 522.134 755.724 523.97 755.724C525.806 755.724 527.138 754.86 527.93 753.852C528.938 752.556 529.226 751.836 529.226 746.58C529.226 741.324 528.938 740.604 527.93 739.308C527.138 738.3 525.806 737.436 523.97 737.436C522.134 737.436 520.802 738.3 520.01 739.308C519.002 740.604 518.714 741.324 518.714 746.58ZM538.022 759.396V733.764H541.694L553.286 751.98H553.358V733.764H557.246V759.396H553.574L541.982 741.18H541.91V759.396H538.022ZM268.332 799.084L270.888 796.168C272.832 797.716 275.424 798.724 278.16 798.724C281.328 798.724 283.236 797.284 283.236 795.16C283.236 793.36 282.192 791.992 279.888 791.704C278.736 791.56 277.836 791.416 276.504 791.236C272.076 790.624 269.7 787.744 269.7 784.036C269.7 779.644 272.76 776.548 278.052 776.548C281.22 776.548 284.028 777.664 286.368 779.212L284.208 782.416C282.336 781.228 280.14 780.436 277.872 780.436C275.496 780.436 273.588 781.66 273.588 784.108C273.588 785.548 274.632 786.988 277.224 787.384C277.908 787.492 278.88 787.636 280.104 787.78C284.892 788.356 287.124 791.668 287.124 795.16C287.124 799.876 283.632 802.612 278.124 802.612C274.344 802.612 271.032 801.46 268.332 799.084ZM291.127 793.72V776.764H295.015V793.288C295.015 796.816 297.283 798.724 300.235 798.724C303.187 798.724 305.455 796.816 305.455 793.288V776.764H309.343V793.72C309.343 799.048 305.311 802.612 300.235 802.612C295.159 802.612 291.127 799.048 291.127 793.72ZM314.631 802.396V776.764H318.519V802.396H314.631ZM328.628 802.396V780.22H321.608V776.764H339.536V780.22H332.516V802.396H328.628ZM342.632 802.396V776.764H359.012V780.436H346.52V787.744H357.176V791.2H346.52V798.724H359.012V802.396H342.632Z" fill="#00B7FF"/>
<path d="M312.986 350.813C313.767 351.594 315.033 351.594 315.814 350.813L328.542 338.085C329.323 337.304 329.323 336.037 328.542 335.256C327.761 334.475 326.495 334.475 325.714 335.256L314.4 346.57L303.086 335.256C302.305 334.475 301.039 334.475 300.258 335.256C299.477 336.037 299.477 337.304 300.258 338.085L312.986 350.813ZM314.4 162.398H312.4V164.431H314.4H316.4V162.398H314.4ZM314.4 168.496H312.4V172.561H314.4H316.4V168.496H314.4ZM314.4 176.627H312.4V180.692H314.4H316.4V176.627H314.4ZM314.4 184.757H312.4V188.822H314.4H316.4V184.757H314.4ZM314.4 192.887H312.4V196.953H314.4H316.4V192.887H314.4ZM314.4 201.018H312.4V205.083H314.4H316.4V201.018H314.4ZM314.4 209.148H312.4V213.214H314.4H316.4V209.148H314.4ZM314.4 217.279H312.4V221.344H314.4H316.4V217.279H314.4ZM314.4 225.409H312.4V229.474H314.4H316.4V225.409H314.4ZM314.4 233.54H312.4V237.605H314.4H316.4V233.54H314.4ZM314.4 241.67H312.4V245.735H314.4H316.4V241.67H314.4ZM314.4 249.8H312.4V253.866H314.4H316.4V249.8H314.4ZM314.4 257.931H312.4V261.996H314.4H316.4V257.931H314.4ZM314.4 266.061H312.4V270.127H314.4H316.4V266.061H314.4ZM314.4 274.192H312.4V278.257H314.4H316.4V274.192H314.4ZM314.4 282.322H312.4V286.387H314.4H316.4V282.322H314.4ZM314.4 290.453H312.4V294.518H314.4H316.4V290.453H314.4ZM314.4 298.583H312.4V302.648H314.4H316.4V298.583H314.4ZM314.4 306.713H312.4V310.779H314.4H316.4V306.713H314.4ZM314.4 314.844H312.4V318.909H314.4H316.4V314.844H314.4ZM314.4 322.974H312.4V327.04H314.4H316.4V322.974H314.4ZM314.4 331.105H312.4V335.17H314.4H316.4V331.105H314.4ZM314.4 339.235H312.4V343.3H314.4H316.4V339.235H314.4ZM314.4 347.366H312.4V349.398H314.4H316.4V347.366H314.4Z" fill="#006A94"/>
<path d="M312.986 690.81C313.767 691.591 315.033 691.591 315.814 690.81L328.542 678.082C329.323 677.301 329.323 676.035 328.542 675.254C327.761 674.473 326.495 674.473 325.714 675.254L314.4 686.568L303.086 675.254C302.305 674.473 301.039 674.473 300.258 675.254C299.477 676.035 299.477 677.301 300.258 678.082L312.986 690.81ZM314.4 502.396H312.4V504.429H314.4H316.4V502.396H314.4ZM314.4 508.494H312.4V512.559H314.4H316.4V508.494H314.4ZM314.4 516.624H312.4V520.689H314.4H316.4V516.624H314.4ZM314.4 524.755H312.4V528.82H314.4H316.4V524.755H314.4ZM314.4 532.885H312.4V536.95H314.4H316.4V532.885H314.4ZM314.4 541.016H312.4V545.081H314.4H316.4V541.016H314.4ZM314.4 549.146H312.4V553.211H314.4H316.4V549.146H314.4ZM314.4 557.276H312.4V561.342H314.4H316.4V557.276H314.4ZM314.4 565.407H312.4V569.472H314.4H316.4V565.407H314.4ZM314.4 573.537H312.4V577.602H314.4H316.4V573.537H314.4ZM314.4 581.668H312.4V585.733H314.4H316.4V581.668H314.4ZM314.4 589.798H312.4V593.863H314.4H316.4V589.798H314.4ZM314.4 597.929H312.4V601.994H314.4H316.4V597.929H314.4ZM314.4 606.059H312.4V610.124H314.4H316.4V606.059H314.4ZM314.4 614.189H312.4V618.255H314.4H316.4V614.189H314.4ZM314.4 622.32H312.4V626.385H314.4H316.4V622.32H314.4ZM314.4 630.45H312.4V634.516H314.4H316.4V630.45H314.4ZM314.4 638.581H312.4V642.646H314.4H316.4V638.581H314.4ZM314.4 646.711H312.4V650.776H314.4H316.4V646.711H314.4ZM314.4 654.842H312.4V658.907H314.4H316.4V654.842H314.4ZM314.4 662.972H312.4V667.037H314.4H316.4V662.972H314.4ZM314.4 671.102H312.4V675.168H314.4H316.4V671.102H314.4ZM314.4 679.233H312.4V683.298H314.4H316.4V679.233H314.4ZM314.4 687.363H312.4V689.396H314.4H316.4V687.363H314.4Z" fill="#006A94"/>
<defs>
<filter id="filter0_d_110_116" x="-5.72205e-06" y="1.90735e-06" width="627.8" height="171.8" filterUnits="userSpaceOnUse" color-interpolation-filters="sRGB">
<feFlood flood-opacity="0" result="BackgroundImageFix"/>
<feColorMatrix in="SourceAlpha" type="matrix" values="0 0 0 0 0 0 0 0 0 0 0 0 0 0 0 0 0 0 127 0" result="hardAlpha"/>
<feOffset/>
<feGaussianBlur stdDeviation="4.7"/>
<feComposite in2="hardAlpha" operator="out"/>
<feColorMatrix type="matrix" values="0 0 0 0 0 0 0 0 0 0.849393 0 0 0 0 0.999286 0 0 0 0.18 0"/>
<feBlend mode="normal" in2="BackgroundImageFix" result="effect1_dropShadow_110_116"/>
<feBlend mode="normal" in="SourceGraphic" in2="effect1_dropShadow_110_116" result="shape"/>
</filter>
<filter id="filter1_d_110_116" x="-5.72205e-06" y="339.996" width="627.8" height="171.8" filterUnits="userSpaceOnUse" color-interpolation-filters="sRGB">
<feFlood flood-opacity="0" result="BackgroundImageFix"/>
<feColorMatrix in="SourceAlpha" type="matrix" values="0 0 0 0 0 0 0 0 0 0 0 0 0 0 0 0 0 0 127 0" result="hardAlpha"/>
<feOffset/>
<feGaussianBlur stdDeviation="4.7"/>
<feComposite in2="hardAlpha" operator="out"/>
<feColorMatrix type="matrix" values="0 0 0 0 0 0 0 0 0 0.849393 0 0 0 0 0.999286 0 0 0 0.18 0"/>
<feBlend mode="normal" in2="BackgroundImageFix" result="effect1_dropShadow_110_116"/>
<feBlend mode="normal" in="SourceGraphic" in2="effect1_dropShadow_110_116" result="shape"/>
</filter>
<filter id="filter2_d_110_116" x="-5.72205e-06" y="679.996" width="627.8" height="171.8" filterUnits="userSpaceOnUse" color-interpolation-filters="sRGB">
<feFlood flood-opacity="0" result="BackgroundImageFix"/>
<feColorMatrix in="SourceAlpha" type="matrix" values="0 0 0 0 0 0 0 0 0 0 0 0 0 0 0 0 0 0 127 0" result="hardAlpha"/>
<feOffset/>
<feGaussianBlur stdDeviation="4.7"/>
<feComposite in2="hardAlpha" operator="out"/>
<feColorMatrix type="matrix" values="0 0 0 0 0 0 0 0 0 0.849393 0 0 0 0 0.999286 0 0 0 0.18 0"/>
<feBlend mode="normal" in2="BackgroundImageFix" result="effect1_dropShadow_110_116"/>
<feBlend mode="normal" in="SourceGraphic" in2="effect1_dropShadow_110_116" result="shape"/>
</filter>
</defs>
</svg>
